<svg width="98" height="98" viewBox="0 0 98 98" fill="none" xmlns="http://www.w3.org/2000/svg">
<g filter="url(#filter0_d_585_15)">
<circle cx="49" cy="45" r="42.5" fill="#533420" stroke="#533420" stroke-width="5"/>
<path d="M72.6563 32.2824C72.07 31.3423 71.7792 30.378 71.7841 29.3893C71.7918 28.4052 72.0738 27.4633 72.6302 26.5638C73.1895 25.6688 74.0069 24.8859 75.0826 24.215C76.1673 23.5384 77.2368 23.1444 78.2911 23.033C79.3482 22.9261 80.3203 23.0857 81.2075 23.5117C82.0975 23.9422 82.8357 24.6275 83.4221 25.5676C84.0084 26.5076 84.2978 27.4697 84.2901 28.4539C84.2852 29.4426 84.0009 30.3858 83.4372 31.2836C82.8762 32.1859 82.0534 32.9754 80.9687 33.6519C79.893 34.3229 78.8289 34.7103 77.7763 34.8144C76.7266 34.923 75.7567 34.762 74.8667 34.3315C73.9795 33.9055 73.2427 33.2225 72.6563 32.2824ZM74.0936 31.386C74.539 32.1001 75.0885 32.5735 75.7421 32.8061C76.3957 33.0388 77.0899 33.0798 77.8246 32.9291C78.5594 32.7785 79.2747 32.4861 79.9708 32.052C80.6668 31.6179 81.2463 31.1026 81.7093 30.5062C82.1722 29.9098 82.4453 29.2655 82.5283 28.5734C82.6114 27.8812 82.4302 27.1781 81.9848 26.464C81.5394 25.7499 80.9877 25.2779 80.3295 25.0481C79.6714 24.8182 78.9727 24.78 78.2334 24.9335C77.4942 25.087 76.7766 25.3808 76.0805 25.8149C75.3845 26.249 74.8073 26.7629 74.3488 27.3564C73.8903 27.95 73.6218 28.5915 73.5433 29.2808C73.4647 29.9702 73.6482 30.6719 74.0936 31.386Z" fill="#F7AA5C"/>
<g filter="url(#filter1_d_585_15)">
<path d="M77.1921 12.3836L70.8015 19.4881L70.9685 19.6384L78.615 19.1658L80.3494 20.7263L72.988 21.156L72.4275 30.1072L70.6453 28.5037L71.1208 21.1082L69.321 21.1345L66.2498 24.5506L64.8474 23.2888L75.7908 11.1228L77.1921 12.3836Z" fill="#DD715B"/>
</g>
<path d="M70.2406 15.4705L68.5137 15.1283C68.547 14.8284 68.5316 14.5127 68.4675 14.181C68.4105 13.8471 68.2653 13.522 68.0319 13.2057C67.7986 12.8894 67.4375 12.6067 66.9486 12.3575C66.2795 12.0164 65.6433 11.8864 65.0399 11.9675C64.4438 12.0463 64.0259 12.3205 63.7864 12.7904C63.5736 13.208 63.5573 13.6152 63.7376 14.0121C63.918 14.4089 64.2897 14.8525 64.8529 15.3429L66.2727 16.5689C67.1294 17.3045 67.6728 18.0389 67.903 18.772C68.1355 19.5004 68.0571 20.2466 67.6676 21.0107C67.3483 21.6371 66.8825 22.1052 66.2702 22.4149C65.6627 22.727 64.966 22.8621 64.1802 22.8203C63.3944 22.7785 62.5768 22.541 61.7273 22.108C60.612 21.5395 59.8124 20.827 59.3283 19.9704C58.8442 19.1138 58.7419 18.1708 59.0215 17.1415L60.8193 17.5556C60.6712 18.2215 60.7333 18.8092 61.0057 19.3188C61.2828 19.8307 61.7654 20.2621 62.4536 20.6128C63.2366 21.012 63.943 21.1628 64.5726 21.0653C65.2095 20.9654 65.6476 20.6805 65.8871 20.2107C66.0807 19.831 66.1099 19.4454 65.9747 19.0536C65.842 18.6571 65.5331 18.2545 65.0479 17.8458L63.4432 16.4897C62.5629 15.742 62.0148 14.9992 61.7989 14.2615C61.5903 13.5213 61.6783 12.774 62.0629 12.0194C62.3774 11.4025 62.8288 10.945 63.4172 10.6471C64.0102 10.3515 64.6771 10.2221 65.4177 10.2588C66.163 10.2979 66.9201 10.5135 67.6889 10.9053C68.7709 11.4569 69.4994 12.1272 69.8745 12.9163C70.2543 13.7077 70.3763 14.5591 70.2406 15.4705Z" fill="#92C4C6"/>
<path d="M56.0355 19.3539L59.4565 7.56764L61.2674 8.09326L57.8464 19.8796L56.0355 19.3539ZM60.9475 5.87052C60.5945 5.76807 60.325 5.55951 60.139 5.24484C59.9581 4.93165 59.9167 4.60624 60.0147 4.26861C60.1127 3.93098 60.3219 3.67833 60.6423 3.51065C60.9679 3.34446 61.3072 3.31259 61.6602 3.41504C62.0131 3.5175 62.2801 3.72531 62.4609 4.0385C62.6469 4.35318 62.6909 4.67933 62.5929 5.01695C62.4949 5.35458 62.2831 5.60649 61.9576 5.77268C61.6371 5.94036 61.3004 5.97297 60.9475 5.87052Z" fill="#FCE5B9"/>
<path d="M50.2653 19.2227C49.245 19.153 48.3618 18.8336 47.6159 18.2647C46.8703 17.6905 46.3093 16.9153 45.9329 15.9392C45.5568 14.9578 45.4132 13.8187 45.5018 12.5221C45.5898 11.236 45.8866 10.1351 46.3924 9.21929C46.8982 8.30351 47.562 7.61477 48.3837 7.15307C49.2055 6.69137 50.1319 6.49577 51.1628 6.56627C51.96 6.62078 52.5806 6.79671 53.0248 7.09404C53.4747 7.38642 53.8104 7.70837 54.0319 8.05988C54.2592 8.40645 54.4346 8.69074 54.5582 8.91276L54.7177 8.92367L55.1298 2.89726L57.011 3.02591L55.8946 19.3514L54.0771 19.2271L54.2058 17.3459L53.9826 17.3306C53.8292 17.5444 53.6133 17.8126 53.3349 18.1352C53.0569 18.4526 52.6724 18.728 52.1812 18.9613C51.6905 19.1894 51.0518 19.2765 50.2653 19.2227ZM50.6359 17.5502C51.3906 17.6018 52.0417 17.4488 52.5894 17.0912C53.1375 16.7282 53.571 16.2053 53.89 15.5223C54.2094 14.834 54.4007 14.0276 54.4639 13.1029C54.5264 12.1888 54.4483 11.3799 54.2294 10.6762C54.011 9.96719 53.6544 9.40356 53.1598 8.98531C52.6655 8.56176 52.0357 8.32381 51.2705 8.27148C50.4733 8.21697 49.795 8.37614 49.2356 8.749C48.6819 9.11691 48.2484 9.63986 47.935 10.3179C47.6274 10.9909 47.4441 11.7579 47.3853 12.6188C47.3257 13.4904 47.4044 14.2913 47.6214 15.0216C47.8441 15.7469 48.2041 16.3375 48.7016 16.7933C49.2046 17.2441 49.8494 17.4964 50.6359 17.5502Z" fill="#F7AA5C"/>
<path d="M43.3478 2.46171L45.7526 18.6477L43.8874 18.9248L41.4826 2.73882L43.3478 2.46171Z" fill="#DE715A"/>
<path d="M40.6151 19.7285L37.3738 7.89158L39.1925 7.39357L42.4338 19.2305L40.6151 19.7285ZM37.7583 5.66552C37.4038 5.76259 37.0651 5.72556 36.7421 5.55444C36.4242 5.3819 36.2189 5.1261 36.126 4.78702C36.0332 4.44794 36.0796 4.1232 36.2652 3.8128C36.456 3.50099 36.7286 3.29656 37.0831 3.19949C37.4376 3.10242 37.7737 3.14015 38.0916 3.31268C38.4146 3.48381 38.6225 3.73891 38.7154 4.07799C38.8082 4.41707 38.7593 4.74251 38.5685 5.05432C38.3829 5.36472 38.1128 5.56845 37.7583 5.66552Z" fill="#92C5C6"/>
<path d="M30.2334 16.7166L33.5825 23.2961L31.902 24.1515L26.3347 13.2142L27.9582 12.3878L28.8281 14.0967L28.9705 14.0242C28.9441 13.3383 29.1062 12.694 29.4568 12.0911C29.805 11.4835 30.3921 10.9695 31.2181 10.5491C31.9587 10.1721 32.684 9.99417 33.394 10.0153C34.1017 10.0316 34.7656 10.2674 35.3859 10.7228C36.0038 11.1733 36.5495 11.8638 37.0231 12.7942L40.5607 19.744L38.8802 20.5994L35.4006 13.7636C34.9633 12.9043 34.3994 12.3486 33.7092 12.0963C33.0165 11.8392 32.2809 11.9088 31.5023 12.3051C30.9659 12.5782 30.5457 12.9385 30.2416 13.3862C29.9422 13.8314 29.7851 14.3388 29.7701 14.9082C29.7552 15.4777 29.9096 16.0805 30.2334 16.7166Z" fill="#FCE5B9"/>
<path d="M30.3645 25.3743L22.6846 15.8015L24.1554 14.6215L31.8353 24.1943L30.3645 25.3743ZM22.1525 13.606C21.8658 13.836 21.5402 13.9367 21.1758 13.9081C20.8156 13.8761 20.5254 13.723 20.3054 13.4488C20.0854 13.1746 19.9989 12.8582 20.0458 12.4996C20.0969 12.1376 20.2658 11.8417 20.5525 11.6117C20.8392 11.3817 21.1626 11.2826 21.5229 11.3146C21.8873 11.3432 22.1795 11.4946 22.3995 11.7688C22.6195 12.0431 22.7039 12.3611 22.6529 12.7231C22.6059 13.0817 22.4391 13.376 22.1525 13.606Z" fill="#F7AA5C"/>
<path d="M11.0754 23.509L24.9115 28.1895L25.0299 28.0387L17.1909 15.714L18.4732 14.0795L27.6387 28.9074L26.3762 30.5167L9.79308 25.1434L11.0754 23.509Z" fill="#DF6F59"/>
<path d="M49 32.6711C55.8712 32.6711 61.4414 38.2413 61.4414 45.1125C61.4414 51.9837 55.8712 57.5539 49 57.5539C42.1288 57.5539 36.5586 51.9837 36.5586 45.1125C36.5586 38.2413 42.1288 32.6711 49 32.6711Z" fill="black" stroke="black" stroke-width="5"/>
<mask id="path-13-inside-1_585_15" fill="white">
<ellipse cx="49.0879" cy="45.0247" rx="3.7793" ry="3.7793"/>
</mask>
<ellipse cx="49.0879" cy="45.0247" rx="3.7793" ry="3.7793" fill="white"/>
<path d="M52.8672 45.0247H47.8672C47.8672 44.3505 48.4137 43.8039 49.0879 43.8039V48.8039V53.8039C53.9366 53.8039 57.8672 49.8733 57.8672 45.0247H52.8672ZM49.0879 48.8039V43.8039C49.7621 43.8039 50.3086 44.3505 50.3086 45.0247H45.3086H40.3086C40.3086 49.8733 44.2392 53.8039 49.0879 53.8039V48.8039ZM45.3086 45.0247H50.3086C50.3086 45.6988 49.7621 46.2454 49.0879 46.2454V41.2454V36.2454C44.2392 36.2454 40.3086 40.176 40.3086 45.0247H45.3086ZM49.0879 41.2454V46.2454C48.4137 46.2454 47.8672 45.6988 47.8672 45.0247H52.8672H57.8672C57.8672 40.176 53.9366 36.2454 49.0879 36.2454V41.2454Z" fill="black" mask="url(#path-13-inside-1_585_15)"/>
</g>
<defs>
<filter id="filter0_d_585_15" x="0" y="0" width="98" height="98" filterUnits="userSpaceOnUse" color-interpolation-filters="sRGB">
<feFlood flood-opacity="0" result="BackgroundImageFix"/>
<feColorMatrix in="SourceAlpha" type="matrix" values="0 0 0 0 0 0 0 0 0 0 0 0 0 0 0 0 0 0 127 0" result="hardAlpha"/>
<feOffset dy="4"/>
<feGaussianBlur stdDeviation="2"/>
<feComposite in2="hardAlpha" operator="out"/>
<feColorMatrix type="matrix" values="0 0 0 0 0 0 0 0 0 0 0 0 0 0 0 0 0 0 0.25 0"/>
<feBlend mode="normal" in2="BackgroundImageFix" result="effect1_dropShadow_585_15"/>
<feBlend mode="normal" in="SourceGraphic" in2="effect1_dropShadow_585_15" result="shape"/>
</filter>
<filter id="filter1_d_585_15" x="60.8474" y="11.1228" width="23.502" height="26.9844" filterUnits="userSpaceOnUse" color-interpolation-filters="sRGB">
<feFlood flood-opacity="0" result="BackgroundImageFix"/>
<feColorMatrix in="SourceAlpha" type="matrix" values="0 0 0 0 0 0 0 0 0 0 0 0 0 0 0 0 0 0 127 0" result="hardAlpha"/>
<feOffset dy="4"/>
<feGaussianBlur stdDeviation="2"/>
<feComposite in2="hardAlpha" operator="out"/>
<feColorMatrix type="matrix" values="0 0 0 0 0 0 0 0 0 0 0 0 0 0 0 0 0 0 0.25 0"/>
<feBlend mode="normal" in2="BackgroundImageFix" result="effect1_dropShadow_585_15"/>
<feBlend mode="normal" in="SourceGraphic" in2="effect1_dropShadow_585_15" result="shape"/>
</filter>
</defs>
</svg>
